<svg class="custom-logo custom-logo--svg" xmlns="http://www.w3.org/2000/svg" width="107" height="32" viewBox="0 0 107 32" fill="white" stroke="black" stroke-width="0.5" aria-hidden="true" role="img">
  <path d="M55.684,22.201h-4.417l-1.992,9.453h4.677c2.782,0.103,5.217-1.855,5.72-4.596C60.187,24.195,59.408,22.201,55.684,22.201z   M55.768,26.884c-0.089,0.72-0.357,1.406-0.78,1.995c-0.284,0.432-0.786,0.667-1.299,0.607h-0.347l1.125-5.117h0.347  c0.442-0.046,0.863,0.199,1.04,0.607c0.141,0.632,0.112,1.29-0.084,1.908H55.768z M66.769,22.201l-1.299,6.07  c-0.173,0.781-0.606,1.041-0.953,1.041c-0.347,0-0.693-0.26-0.52-1.041l1.299-6.07h-3.724l-1.302,6.244  c-0.52,2.255,0.866,3.382,3.724,3.382c2.857,0,4.677-1.127,5.196-3.382l1.302-6.244H66.769z M75.867,28.184  c-0.26,1.041-0.693,1.3-1.125,1.3c-0.953,0-0.78-1.041-0.52-2.515c0.347-1.474,0.606-2.515,1.559-2.515  c0.433,0,0.78,0.174,0.606,1.3h3.377c0.606-2.775-1.212-3.729-3.55-3.729c-2.945-0.129-5.501,2.017-5.888,4.943  C69.719,29.918,70.758,32,74.049,32c2.338,0,4.677-1.127,5.196-3.729h-3.379V28.184z M83.484,22.201l-5.023,9.453h3.55l0.693-1.561  h2.685v1.561h3.81l-1.039-9.453H83.484z M85.389,27.837H83.83l1.559-3.555l0,0V27.837z M98.46,22.201h-8.314l-0.606,2.515h2.338  l-1.472,6.938h3.724l1.472-6.938h2.338L98.46,22.201z M97.166,31.654h3.724l1.996-9.453h-3.724L97.166,31.654z M90.671,20.38  l0.693-3.642h-4.503l0.953-4.596h3.637l0.693-3.209h-3.637l1.04-5.204h4.763l0.778-3.558l-4.763-0.084h-3.897L82.271,20.38H90.671z   M76.641,20.383h4.243l0.78-3.642h-4.33L80.798,0h-3.81l-4.243,20.383H76.641z M15.155,16.217l2.512-12.142  c0.112-0.257,0.335-0.449,0.606-0.521h3.55l0.695-3.469h-5.72c-1.211,0.045-2.241,0.899-2.512,2.081l0,0l-3.376,16.044v0.174  c-0.168,0.873,0.403,1.718,1.275,1.886c0.151,0.029,0.305,0.036,0.458,0.022h5.72l0.78-3.642h-3.555  C15.242,16.737,15.069,16.477,15.155,16.217z M6.928,4.163c0.019-0.279,0.241-0.502,0.52-0.521h3.984L12.297,0H5.804  C4.575,0.077,3.548,0.963,3.29,2.168c-0.087,0.312-0.087,0.642,0,0.954l2.338,13.095v0.084c-0.084,0.277-0.32,0.48-0.606,0.521H0.78  L0,20.383h6.582c1.211-0.045,2.241-0.899,2.512-2.081c0.066-0.225,0.094-0.46,0.084-0.694L6.928,4.163z M105.306,0.174h-8.487  L92.663,20.38h3.897l1.212-5.98h0.866l0.693,5.98h3.897l-0.693-5.98c1.108-0.136,2.028-0.921,2.338-1.995l2.078-10.146V2.175  c0.216-0.864-0.308-1.739-1.171-1.955C105.626,0.181,105.466,0.165,105.306,0.174z M101.41,10.32L101.41,10.32  c-0.053,0.296-0.307,0.513-0.606,0.521h-2.337l1.472-7.111h2.338c0.211,0.005,0.377,0.181,0.372,0.392  c-0.001,0.044-0.01,0.088-0.026,0.129l0,0L101.41,10.32z M68.501,20.38c1.2-0.072,2.216-0.914,2.512-2.081l1.385-6.591  c0.097-0.712-0.4-1.368-1.111-1.466c-0.091-0.012-0.183-0.015-0.274-0.008c0.924-0.053,1.718-0.675,1.992-1.561l1.299-6.331V2.258  c0.241-0.878-0.275-1.786-1.152-2.027c-0.16-0.044-0.327-0.064-0.493-0.058h-8.487L59.927,20.38H68.501z M67.462,3.729H69.8  c0.211,0.005,0.377,0.181,0.372,0.392c-0.001,0.044-0.01,0.088-0.026,0.129l0,0l-0.953,4.684h-2.86L67.462,3.729z M65.731,12.141  h2.86l-0.866,4.076l0,0c-0.084,0.277-0.32,0.48-0.606,0.521H64.78L65.731,12.141z M32.908,12.401l2.078-10.146V2.171  c0.24-0.878-0.276-1.786-1.153-2.026c-0.16-0.044-0.326-0.063-0.492-0.058h-8.487l-4.07,20.206h3.81l1.212-5.98h0.866l0.693,5.98  h3.81l-0.693-5.98C31.622,14.278,32.606,13.503,32.908,12.401z M29.531,10.233c-0.084,0.277-0.32,0.48-0.606,0.521h-2.337  l1.472-7.111h2.338c0.211,0.005,0.377,0.181,0.372,0.392c-0.001,0.044-0.01,0.088-0.026,0.129l0,0L29.531,10.233z M41.395,0h-1.126  l-8.054,20.293h4.243l0.866-2.428h2.944l-0.173,2.428h4.07L44.512,0H41.395z M40.356,14.656h-1.992l2.599-7.371L40.356,14.656z   M51.701,18.905l2.166-3.555l2.252-4.163l-1.906,9.196h3.897L62.266,0h-4.157l-4.243,8.844L53.519,0h-4.157l-4.243,20.293  l3.897,0.084l1.823-9.017L51.701,18.905z"></path>
</svg>