<?xml version="1.0" encoding="utf-8"?>
<!-- Generator: Adobe Illustrator 23.0.2, SVG Export Plug-In . SVG Version: 6.00 Build 0)  -->
<svg version="1.1"
	 id="svg2" xmlns:cc="http://creativecommons.org/ns#" xmlns:dc="http://purl.org/dc/elements/1.1/" xmlns:rdf="http://www.w3.org/1999/02/22-rdf-syntax-ns#" xmlns:svg="http://www.w3.org/2000/svg"
	 xmlns="http://www.w3.org/2000/svg" xmlns:xlink="http://www.w3.org/1999/xlink" x="0px" y="0px"
	 viewBox="0 0 207.38206 216.00726" style="enable-background:new 0 0 207.38206 216.00726;" xml:space="preserve">
<style type="text/css">
	.st0{fill-rule:evenodd;clip-rule:evenodd;fill:#CD1005;}
</style>
<path class="st0" d="M32.60402,55.80042h-1.59186l3.09259-15.44171h1.71478C42.1515,40.3587,38.6404,55.80042,32.60402,55.80042z
	 M203.55659,78.38641c-36.35602-0.19006-71.43494-0.08234-100.17645,1.78479c-44.58685,2.89716-77.07159,6.32013-91.51746,21.52252
	C1.61696,73.35315-4.39775,42.31439,3.90449,29.18988C15.94935,10.14874,68.61934,0,103.04164,0
	c34.42291,0,87.36597,10.14874,99.92432,29.18988C209.26759,38.74438,208.2394,57.79541,203.55659,78.38641z M50.85121,40.62476
	c-0.65009-2.15924-1.93597-3.8363-3.86548-5.03192c-1.00482-0.5968-2.23315-1.02509-3.69263-1.28296
	c-1.45886-0.25787-3.72913-0.38715-6.82556-0.38715H24.28627l-5.97308,29.2995h10.30615c3.39459,0,5.87787-0.09509,7.45563-0.2782
	c1.57837-0.18372,2.92151-0.49609,4.03595-0.93701c2.86292-1.09991,5.20325-2.77765,7.01624-5.03827
	c1.82013-2.26129,3.06451-5.05225,3.74042-8.36584C51.51131,45.44574,51.50722,42.79041,50.85121,40.62476z M80.99147,52.71802
	l3.83197-18.79529H73.26765L69.2892,53.13049c-0.62006,2.99237-5.7666,4.02832-4.8501-0.53479l3.75153-18.67297H56.4789
	l-3.83136,18.79529c-0.74628,3.65955-0.03833,6.46381,2.11664,8.40576c2.16272,1.94257,5.66418,2.91321,10.50452,2.91321
	c4.81122,0,7.27551-0.97064,10.20679-2.90625C78.40669,59.1958,80.24281,56.39154,80.99147,52.71802z M113.56129,51.86206h-10.88953
	c-0.88477,3.07794-2.34015,4.46991-4.3609,4.32294c-2.10693-0.15332-2.80383-3.67609-2.04608-7.58844
	c0.80005-4.13037,2.06586-7.97241,5.06268-8.11432c2.90375-0.13751,2.94885,1.91278,2.41437,4.53583h10.98663
	c0.43903-3.8028-0.3858-6.73566-2.47162-8.7796c-2.09106-2.0509-5.29578-3.07605-9.62897-3.07605
	c-4.69995,0-8.6756,1.37805-11.93475,4.13544c-3.25964,2.76306-5.34802,6.52466-6.27271,11.29871
	c-0.92957,4.7937-0.28687,8.56226,1.93201,11.31201c2.2124,2.75037,5.71619,4.12842,10.51318,4.12842
	c4.27753,0,7.87384-1.06567,10.78827-3.19135C110.57668,58.71362,112.54347,55.7193,113.56129,51.86206z M144.81075,63.22223
	l-3.58728-29.2995h-15.34369l-15.38397,29.2995h0.00006h10.63019l2.43945-5.25812h8.91864l0.14661,5.25812H144.81075z
	 M166.12361,41.64294h7.38171l1.49554-7.72021h-26.63239l-1.49554,7.72021h7.37268l-4.17993,21.57928h11.87793L166.12361,41.64294z
	 M188.89699,33.92273h-12.0636l-5.97308,29.2995h12.06427L188.89699,33.92273z M126.93025,50.71082h5.35132l-0.30389-10.87927
	L126.93025,50.71082z M80.81508,108.56781c-21.83832,9.42651-47.23541,19.34271-43.91168,43.63245l-0.00012,0.00012
	c20.72906,31.56628,51.21899,63.80688,69.05121,63.80688c21.96472,0,61.8136-48.91272,79.31122-85.23169
	c6.06946-12.59753,11.89716-28.12292,16.04883-43.43567C154.40602,89.08203,111.40248,95.36591,80.81508,108.56781z"/>
</svg>
