<svg id="Layer_1" data-name="Layer 1" xmlns="http://www.w3.org/2000/svg" viewBox="0 0 732.8 197.42"><defs><style>.cls-1{fill:#e4032c;fill-rule:evenodd;}</style></defs><path class="cls-1" d="M674.11,137.47l14.11-19H623.16l19.75-26.62h32.52l14.14-19H628.22A17,17,0,0,0,622.31,74a9.28,9.28,0,0,0-4.21,2.62l-42.33,57a2,2,0,0,0-.42.75,1.89,1.89,0,0,0,1.08,2.17,6.92,6.92,0,0,0,3.8.91Zm-545.58,0L152.62,105H202.3l20.07-27H172.7l3.79-5.12H257l20.25-27.29H108.9L40.69,137.47Zm115.53,0h56l48-64.65H271.47l-120.2,64.65h53l88-45.64-16.92,22.8H261ZM421,72.82l-21.19,28.52-7.73-28.52H356l-48,64.65h36.12L365.27,109l7.8,28.52h36.12l48-64.65Zm63.77,19L451,137.47H487L520.9,91.83h33.75l14.14-19H465.16l-14.11,19Zm80.12,45.64,48-64.65h-36.1l-48,64.65Z"/></svg>